<mxfile host="app.diagrams.net" modified="2022-07-01T20:43:35.623Z" agent="5.0 (Windows NT 10.0; Win64; x64) AppleWebKit/537.36 (KHTML, like Gecko) Chrome/103.0.0.0 Safari/537.36" etag="k6Vf0gvWd75vpAtTe7Pm" version="20.0.4" type="github">
  <diagram id="5d712PURRep5_9I_O1BZ" name="Page-1">
    <mxGraphModel dx="1502" dy="804" grid="1" gridSize="10" guides="1" tooltips="1" connect="1" arrows="1" fold="1" page="1" pageScale="1" pageWidth="827" pageHeight="1169" background="#FEFFE8" math="0" shadow="0">
      <root>
        <mxCell id="0" />
        <mxCell id="1" parent="0" />
        <mxCell id="lr9qJDFKW7P0UVie4wkK-1" value="Start" style="ellipse;whiteSpace=wrap;html=1;fontSize=25;fillColor=#B2C9AB;strokeColor=#788AA3;fontColor=#46495D;rounded=1;sketch=1;" vertex="1" parent="1">
          <mxGeometry x="40" y="40" width="120" height="80" as="geometry" />
        </mxCell>
        <mxCell id="lr9qJDFKW7P0UVie4wkK-2" value="End" style="ellipse;whiteSpace=wrap;html=1;fontSize=25;fillColor=#B2C9AB;strokeColor=#788AA3;fontColor=#46495D;rounded=1;sketch=1;" vertex="1" parent="1">
          <mxGeometry x="680" y="1040" width="120" height="80" as="geometry" />
        </mxCell>
        <mxCell id="lr9qJDFKW7P0UVie4wkK-5" value="" style="edgeStyle=orthogonalEdgeStyle;rounded=1;orthogonalLoop=1;jettySize=auto;html=1;fontSize=25;strokeColor=#788AA3;fontColor=#46495D;sketch=1;" edge="1" parent="1" source="lr9qJDFKW7P0UVie4wkK-3" target="lr9qJDFKW7P0UVie4wkK-4">
          <mxGeometry relative="1" as="geometry" />
        </mxCell>
        <mxCell id="lr9qJDFKW7P0UVie4wkK-3" value="Introduction to the application&lt;br&gt;" style="whiteSpace=wrap;html=1;aspect=fixed;fontSize=25;direction=south;fillColor=#B2C9AB;strokeColor=#788AA3;fontColor=#46495D;rounded=1;sketch=1;" vertex="1" parent="1">
          <mxGeometry x="320" y="10" width="130" height="130" as="geometry" />
        </mxCell>
        <mxCell id="lr9qJDFKW7P0UVie4wkK-11" value="" style="edgeStyle=orthogonalEdgeStyle;rounded=1;orthogonalLoop=1;jettySize=auto;html=1;fontSize=25;strokeColor=#788AA3;fontColor=#46495D;sketch=1;" edge="1" parent="1" source="lr9qJDFKW7P0UVie4wkK-4" target="lr9qJDFKW7P0UVie4wkK-10">
          <mxGeometry relative="1" as="geometry" />
        </mxCell>
        <mxCell id="lr9qJDFKW7P0UVie4wkK-4" value="Enter yor name&lt;br&gt;" style="whiteSpace=wrap;html=1;fontSize=25;fillColor=#B2C9AB;strokeColor=#788AA3;fontColor=#46495D;rounded=1;sketch=1;" vertex="1" parent="1">
          <mxGeometry x="325" y="220" width="120" height="95" as="geometry" />
        </mxCell>
        <mxCell id="lr9qJDFKW7P0UVie4wkK-9" value="" style="endArrow=classic;html=1;rounded=1;fontSize=25;exitX=1;exitY=0.5;exitDx=0;exitDy=0;strokeColor=#788AA3;fontColor=#46495D;sketch=1;" edge="1" parent="1" source="lr9qJDFKW7P0UVie4wkK-1">
          <mxGeometry width="50" height="50" relative="1" as="geometry">
            <mxPoint x="460" y="250" as="sourcePoint" />
            <mxPoint x="320" y="80" as="targetPoint" />
            <Array as="points" />
          </mxGeometry>
        </mxCell>
        <mxCell id="lr9qJDFKW7P0UVie4wkK-13" value="" style="edgeStyle=orthogonalEdgeStyle;rounded=1;orthogonalLoop=1;jettySize=auto;html=1;fontSize=25;strokeColor=#788AA3;fontColor=#46495D;sketch=1;" edge="1" parent="1" source="lr9qJDFKW7P0UVie4wkK-10" target="lr9qJDFKW7P0UVie4wkK-12">
          <mxGeometry relative="1" as="geometry" />
        </mxCell>
        <mxCell id="lr9qJDFKW7P0UVie4wkK-10" value="&lt;br&gt;&lt;span style=&quot;font-family: Helvetica; font-size: 25px; font-style: normal; font-variant-ligatures: normal; font-variant-caps: normal; font-weight: 400; letter-spacing: normal; orphans: 2; text-align: center; text-indent: 0px; text-transform: none; widows: 2; word-spacing: 0px; -webkit-text-stroke-width: 0px; background-color: rgb(248, 249, 250); text-decoration-thickness: initial; text-decoration-style: initial; text-decoration-color: initial; float: none; display: inline !important;&quot;&gt;Enter your salary or if you want to calculate your salary or&amp;nbsp;enter C on the keyboard&lt;/span&gt;&lt;br&gt;" style="rhombus;whiteSpace=wrap;html=1;fontSize=25;direction=south;fillColor=#B2C9AB;strokeColor=#788AA3;fontColor=#000000;rounded=1;sketch=1;" vertex="1" parent="1">
          <mxGeometry x="296.25" y="353.75" width="177.5" height="290" as="geometry" />
        </mxCell>
        <mxCell id="lr9qJDFKW7P0UVie4wkK-17" value="" style="edgeStyle=orthogonalEdgeStyle;rounded=1;orthogonalLoop=1;jettySize=auto;html=1;fontSize=25;strokeColor=#788AA3;fontColor=#46495D;sketch=1;" edge="1" parent="1" source="lr9qJDFKW7P0UVie4wkK-12" target="lr9qJDFKW7P0UVie4wkK-16">
          <mxGeometry relative="1" as="geometry" />
        </mxCell>
        <mxCell id="lr9qJDFKW7P0UVie4wkK-12" value="C - key pressed. Enter the number of hours you work weekly" style="whiteSpace=wrap;html=1;fontSize=25;fillColor=#B2C9AB;strokeColor=#788AA3;fontColor=#46495D;rounded=1;sketch=1;" vertex="1" parent="1">
          <mxGeometry x="40" y="407.18" width="160" height="183.13" as="geometry" />
        </mxCell>
        <mxCell id="lr9qJDFKW7P0UVie4wkK-19" value="" style="edgeStyle=orthogonalEdgeStyle;rounded=1;orthogonalLoop=1;jettySize=auto;html=1;fontSize=25;strokeColor=#788AA3;fontColor=#46495D;sketch=1;" edge="1" parent="1" source="lr9qJDFKW7P0UVie4wkK-16" target="lr9qJDFKW7P0UVie4wkK-18">
          <mxGeometry relative="1" as="geometry" />
        </mxCell>
        <mxCell id="lr9qJDFKW7P0UVie4wkK-16" value="Enter your wages per hour&lt;br&gt;" style="whiteSpace=wrap;html=1;fontSize=25;fillColor=#B2C9AB;strokeColor=#788AA3;fontColor=#46495D;rounded=1;sketch=1;" vertex="1" parent="1">
          <mxGeometry x="40" y="710" width="160" height="100" as="geometry" />
        </mxCell>
        <mxCell id="lr9qJDFKW7P0UVie4wkK-22" value="" style="edgeStyle=orthogonalEdgeStyle;rounded=1;orthogonalLoop=1;jettySize=auto;html=1;fontSize=25;strokeColor=#788AA3;fontColor=#46495D;sketch=1;" edge="1" parent="1" source="lr9qJDFKW7P0UVie4wkK-18" target="lr9qJDFKW7P0UVie4wkK-21">
          <mxGeometry relative="1" as="geometry" />
        </mxCell>
        <mxCell id="lr9qJDFKW7P0UVie4wkK-18" value="Salary calculated" style="whiteSpace=wrap;html=1;fontSize=25;fillColor=#B2C9AB;strokeColor=#788AA3;fontColor=#46495D;rounded=1;sketch=1;" vertex="1" parent="1">
          <mxGeometry x="325" y="730" width="120" height="60" as="geometry" />
        </mxCell>
        <mxCell id="lr9qJDFKW7P0UVie4wkK-20" value="" style="endArrow=classic;html=1;rounded=1;fontSize=25;entryX=0.5;entryY=0;entryDx=0;entryDy=0;exitX=1;exitY=0.5;exitDx=0;exitDy=0;strokeColor=#788AA3;fontColor=#46495D;sketch=1;" edge="1" parent="1" source="lr9qJDFKW7P0UVie4wkK-10" target="lr9qJDFKW7P0UVie4wkK-18">
          <mxGeometry width="50" height="50" relative="1" as="geometry">
            <mxPoint x="370" y="660" as="sourcePoint" />
            <mxPoint x="370" y="480" as="targetPoint" />
          </mxGeometry>
        </mxCell>
        <mxCell id="lr9qJDFKW7P0UVie4wkK-21" value="Enter your age" style="whiteSpace=wrap;html=1;fontSize=25;fillColor=#B2C9AB;strokeColor=#788AA3;fontColor=#46495D;rounded=1;sketch=1;" vertex="1" parent="1">
          <mxGeometry x="290" y="870" width="190" height="60" as="geometry" />
        </mxCell>
      </root>
    </mxGraphModel>
  </diagram>
</mxfile>
